<svg xmlns="http://www.w3.org/2000/svg"  viewBox="0 0 100 100" width="400px" height="400px"><path fill="#375ca9" d="M69.8,18H30.2C23.5,18,18,23.5,18,30.2v39.6C18,76.5,23.5,82,30.2,82h39.6C76.5,82,82,76.5,82,69.8V30.2	C82,23.5,76.5,18,69.8,18z"/><path fill="#3070b7" d="M69.8,82H30.2C23.5,82,18,76.5,18,69.8V57.1c4.2-4.1,9.9-6.6,16.3-6.6h31.5c6.3,0,12,2.5,16.2,6.6v12.7	C82,76.5,76.5,82,69.8,82z"/><path fill="#3a83c1" d="M69.8,82H30.2C23.5,82,18,76.5,18,69.8v-4.6c4.2-4.1,9.9-6.6,16.3-6.6h31.5c6.3,0,12,2.5,16.2,6.6v4.6	C82,76.5,76.5,82,69.8,82z"/><path fill="#40a6dd" d="M69.8,82H30.2c-5.6,0-10.4-3.9-11.8-9c4.2-3.8,9.7-6.2,15.8-6.2h31.5c6.1,0,11.7,2.3,15.8,6.2	C80.2,78.1,75.4,82,69.8,82z"/><path fill="#1f212b" d="M67.2,78H33.8c-6,0-10.8-4.9-10.8-10.8V33.8c0-6,4.9-10.8,10.8-10.8h33.7c0.3,0,0.5,0.2,0.5,0.5	S67.8,24,67.5,24H33.8c-5.4,0-9.8,4.4-9.8,9.8v33.3c0,5.4,4.4,9.8,9.8,9.8h33.3c5.4,0,9.8-4.4,9.8-9.8V48.5c0-0.3,0.2-0.5,0.5-0.5	s0.5,0.2,0.5,0.5v18.7C78,73.1,73.1,78,67.2,78z M77.5,45.6c-0.3,0-0.5-0.2-0.5-0.5v-4c0-0.3,0.2-0.5,0.5-0.5s0.5,0.2,0.5,0.5v4	C78,45.3,77.8,45.6,77.5,45.6z M77.5,39.6c-0.3,0-0.5-0.2-0.5-0.5v-2c0-0.3,0.2-0.5,0.5-0.5s0.5,0.2,0.5,0.5v2	C78,39.3,77.8,39.6,77.5,39.6z"/><path fill="none" stroke="#1f212b" stroke-linecap="round" stroke-linejoin="round" stroke-miterlimit="10" stroke-width="2" d="M69,82H31c-7.2,0-13-5.8-13-13V31c0-7.2,5.8-13,13-13h38c7.2,0,13,5.8,13,13v38C82,76.2,76.2,82,69,82z"/><path fill="#fff" d="M37.6,45.1c-3.8-1.9-5.2-2.1-8.2-1.9s-3,1.7-2.3,1.7c0.7,0,0.9,0.1,0.9,0.1l0.1-0.3l-0.9-0.4c0,0,3.8-1,8.4,1.3	s5.9,5.2,4.6,6.6s-3.6,2.2-6.3,1.5c0-2,0-3.4,0-3.4s2.6-0.1,3.3,0.4c0.7,0.5,0.1,0.8-0.3,0.9c0.6,0.4,1.1,0.5,1.5,0	c0.4-0.5,0.9-2.8-4.4-2.6c-0.1-0.9,0.2-1.5-0.6-2.5c-0.8-0.9-0.8,2.5-0.8,2.5s-2,0.3-3.6,1.4c-1.6,1.2,3.4,3.9,3.4,3.9	s0.1,1.3,0.8,1.4s0.7-0.9,0.7-0.9s4.3,1.3,7.2-1.3C44.1,51.1,41.4,47,37.6,45.1z M32.5,53.4c0,0-1.6-0.7-2.5-1.5	c-0.9-0.8-0.6-1-0.2-1.1c0.4-0.1,2.1-0.5,2.8-0.5L32.5,53.4z M43.1,49.3c0,0-0.2,2.8-0.1,4.5c0,0.7,1.2,0.9,1.2,0.1	c0-0.7,0-3.6-0.1-4.2C43.9,49.2,43.4,48.7,43.1,49.3z M49.6,48.9c0,0-2.6-0.6-4.4,0.6c-0.9,0.6-0.6,1.6-0.1,1.7s2.9,0.1,3.5,0.5	c0.6,0.4,0.7,0.7,0.1,1.1s-2,0.6-2.6,0.4s-0.8-1.2,0.3-0.7c1.1,0.5,3-0.1,1.7-0.5c-1.3-0.4-2.4-0.3-3,0.1s0.2,1.5,1,1.8	s2.2,0.4,3.1-0.1c0.9-0.5,1.3-2.5-0.1-2.9c-1.4-0.3-2.3-0.3-2.9-0.4c-0.6-0.1-0.3-0.3,0.7-0.4c1-0.1,1.7-0.1,2.6-0.3	C50.2,49.7,50.3,49.1,49.6,48.9z M53.2,49.7c0.1,0.4,0.5,2.1,0.5,2.7c-0.5-0.7-1.3-2.2-1.9-2.8c-0.7-0.7-0.9-0.1-0.9-0.1	s-0.7,2.5-0.5,4c0.2,1.6,1,0.5,1.1,0s0.1-2.1,0.1-2.5c0.4,1,1.1,2.1,1.6,2.6c0.5,0.5,1.1,0.2,1.3-0.3s0.8-3.1-0.7-4.8	C52.3,46.8,53.1,49.2,53.2,49.7z M58.3,52.6c-0.5,0-2.1,0.3-2.1,0.3l0.3-1c0,0,1,0,1.8,0s0.2-1,0-1c-0.3,0-1.3,0-1.3,0l0.2-0.7	c0,0,1.8,0,2.4-0.1c0.6-0.1-0.3-1.1-1-1.1c-0.7,0-2.1,0.1-3.1,0.3c-1,0.2,0.6,0.9,0.6,0.9S56,50.6,55.8,51c-0.6,0.1-0.5,0.4-0.3,0.9	c-0.4,1-0.6,2.3,0.5,2.6c1.1,0.4,2.4-0.6,2.9-1.1C59.5,53,58.9,52.5,58.3,52.6z M62.4,49.8c-0.7,0.7-2,2.6-2,2.6	c0.1-1.3,0.5-1.6,1.3-2.8c0.7-1.1-0.4-0.7-0.4-0.7s-2.5,2.1-1.4,4.4c-0.7,1.8-1.9,4.3-0.2,5.7c0.4,0.3,0.3-0.6,0.4-1.1	s0.6-2.9,1.1-3.6c1.2-0.1,3.2-0.5,3.6-3.7C65,48.6,63.1,49,62.4,49.8z M63.9,51.3c-0.5,1.3-2.1,1.5-2.1,1.5s1.1-1.7,1.6-2.2	C63.9,50.1,64.4,50,63.9,51.3z M46,47c1-1,1.4-2.7-0.3-2.6c0,0-0.6-0.8-2-0.4c-1.3,0.4-3,2.2-1.8,3.3c0,0.5,0.1,1.5,0.9,0.6	C43.6,48.2,45.1,47.9,46,47z M42.4,46.4c-0.1-0.7,0.2-1.4,1.5-1.6C43.9,44.8,42.6,45.9,42.4,46.4z M45.2,45.2	c1.3-0.5,0.9,0.8,0.2,1.3c-0.7,0.5-1.4,0.7-2.3,0.4C43.1,47,43.9,45.8,45.2,45.2z M73.1,50.3h-2.9c-0.1-1-0.2-2-0.4-2.9	c0-0.1-0.1-0.1-0.1-0.1c-0.3,0-0.4,0-0.8,0c-0.1,0-0.2,0.1-0.2,0.2c0.1,0.4,0.2,1.6,0.3,2.8h-2.8c-0.1,0-0.2,0.1-0.2,0.2l-0.1,0.7	c0,0.1,0.1,0.2,0.2,0.2l2.8,0c0,1,0,2-0.1,2.8c0,0.1,0,0.1,0.1,0.1c0.4,0,0.8,0,0.9,0c0.1,0,0.1,0,0.1-0.1c0-0.3,0.1-1.5,0.1-2.8	l2.8,0c0.1,0,0.2-0.1,0.2-0.2v-0.8C73.3,50.4,73.2,50.3,73.1,50.3z"/><path fill="#3070b7" d="M40.5,37.2c-2,1.3-3.6,2.9-4.9,4.8c-0.4-0.1-0.7-0.3-1.1-0.4c1.5-2.2,3.4-4.1,5.7-5.5	C40.3,36.5,40.4,36.8,40.5,37.2z"/><path fill="#3a83c1" d="M48.9,34.2c-3.1,0.3-5.9,1.4-8.3,3c-0.1-0.4-0.3-0.7-0.3-1.1c2.5-1.6,5.5-2.7,8.6-3	C48.8,33.5,48.8,33.8,48.9,34.2z"/><path fill="#40a6dd" d="M58.4,34.5c-0.2,0.3-0.3,0.7-0.4,1c-2.2-0.9-4.6-1.4-7.1-1.4c-0.7,0-1.4,0-2,0.1c0-0.4,0-0.7,0-1.1	c0.7-0.1,1.4-0.1,2.1-0.1C53.6,33,56.1,33.5,58.4,34.5z"/><path fill="#31c4f3" d="M67.5,41.9c-0.4,0-0.8,0.1-1.1,0.3c-2-3-4.9-5.3-8.3-6.7c0.1-0.3,0.3-0.7,0.4-1C62.2,36,65.3,38.6,67.5,41.9z"/><path fill="#fff" d="M69.1,45c0.1,0.2-1,0.4-1.2,0c-0.4-1-0.9-1.9-1.5-2.8c0.4-0.1,0.7-0.2,1.1-0.3C68.1,42.9,68.6,43.9,69.1,45z"/></svg>